<?xml version="1.0" encoding="UTF-8"?>
<svg xmlns="http://www.w3.org/2000/svg" width="60" height="60" viewBox="0 0 60 60" fill="none">
  <mask id="path-1-outside-1_2697_23551" maskUnits="userSpaceOnUse" x="8" y="1" width="44" height="58" fill="black">
    <rect fill="white" x="8" y="1" width="44" height="58"></rect>
    <path fill-rule="evenodd" clip-rule="evenodd" d="M18.4516 26.8966C18.7936 26.749 19.0734 26.3798 18.9646 26.0106C18.8868 25.7596 18.7003 25.4495 18.4205 25.1689C14.4409 21.0047 13.1195 16.1317 14.4564 10.6828C15.0782 8.11341 16.4618 5.78027 18.5604 3.71294C18.7936 3.49144 19.2755 2.91553 18.7936 2.38393C18.7003 2.28057 18.5448 2.1772 18.3583 2.07383C18.335 2.05907 18.3156 2.048 18.2961 2.03693L18.2961 2.03692L18.2961 2.0369L18.2961 2.0369L18.2961 2.0369C18.2767 2.02583 18.2572 2.01476 18.2339 2H17.8764C17.8289 2.02256 17.7814 2.05374 17.7408 2.08037L17.7408 2.08037C17.7283 2.0886 17.7164 2.09639 17.7054 2.10337C17.6694 2.12442 17.6333 2.14501 17.5979 2.1653C17.4342 2.25882 17.2818 2.34593 17.1924 2.443C14.5652 5.17484 12.9174 8.12817 12.2956 11.2144C11.6738 14.2859 12.0313 17.6084 13.3838 21.0786C14.1455 23.0573 15.4202 24.8884 17.2857 26.6751C17.5033 26.8819 17.7676 27 18.0318 27C18.1718 27 18.3117 26.9557 18.4516 26.8966ZM42.0594 26.6011C45.8472 23.4243 47.9456 19.1838 47.999 14.6625C48.0523 10.1413 46.025 5.87116 42.2906 2.65012C42.0772 2.47281 41.7927 2.31028 41.4904 2.14775L41.4474 2.12071C41.385 2.08121 41.3132 2.03579 41.2414 2H40.9035C40.3878 2.20686 40.0677 2.47281 40.0144 2.75355C39.9432 3.04905 40.1388 3.40366 40.5478 3.75827C43.8733 6.65426 45.6338 10.1265 45.7583 14.042C45.9006 18.3416 44.1223 22.1389 40.4589 25.3304C39.9077 25.8032 39.8721 26.3647 40.3522 26.7488C40.5656 26.9113 40.7968 27 41.0636 27C41.4014 27 41.7571 26.867 42.0594 26.6011ZM49.8632 56.1657H48.9209H47.5C46.7372 56.1657 46.109 56.1657 45.5256 56.1805H45.4658C44.5534 56.1805 44.1645 55.6183 43.9701 55.2041C43.2222 53.6805 42.4893 52.1716 41.7564 50.6479C38.6752 44.287 35.4744 37.7189 32.2735 31.284C31.765 30.2781 31.3611 29.213 31.1218 28.1183C30.8844 27.0032 30.9266 25.9317 30.9711 24.8028L30.9722 24.7751C30.9822 24.4294 30.9789 24.0771 30.9755 23.727C30.9739 23.5528 30.9722 23.3791 30.9722 23.2071V23C30.6731 23.0296 30.359 23.0592 30.0449 23.0592C29.7445 23.0592 29.444 23.0321 29.1305 23.0039L29.0876 23V24.0651C29.0876 25.3077 29.0876 26.5799 29.0726 27.8373C29.0726 28.2367 28.9679 28.6361 28.8034 28.9911L28.8018 28.9944C26.7383 33.2241 24.6747 37.4538 22.6111 41.6982C21.5043 43.9689 20.3937 46.2396 19.2831 48.5104C18.1725 50.7811 17.062 53.0518 15.9551 55.3225C15.6709 55.9142 15.2372 56.1805 14.594 56.1805H14.5491C13.9359 56.1657 13.2778 56.1657 12.4701 56.1657H11.0641H10.1517C9.80769 56.1657 9 56.2544 9 57.0828C9 57.3491 9.07479 57.5562 9.23932 57.7041C9.43376 57.8964 9.74786 58 10.1368 58H29.5363H49.8632C50.2521 58 50.5662 57.8964 50.7607 57.7041C50.9252 57.5414 51 57.3343 51 57.068C50.9701 56.2396 50.1325 56.1657 49.8632 56.1657ZM30.9722 36.0621L32.3932 35.7367L38.0919 47.3935H30.9722V36.0621ZM27.8312 35.2041L28.4744 35.4704L29.0427 35.6923V47.3935H21.8782L27.8312 35.2041ZM17.6004 56.1361L18.6624 53.9615C18.9514 53.3602 19.2405 52.7721 19.5295 52.1839L19.5296 52.1837L19.5298 52.1834L19.5299 52.1831C19.6745 51.8889 19.8191 51.5947 19.9637 51.2988C20.0235 51.1805 20.0833 51.0178 20.1431 50.8551L20.1432 50.855L20.1616 50.8072C20.3511 50.3159 20.5635 49.7654 21.0705 49.4645C21.4594 49.2278 21.9081 49.1982 22.1923 49.1982C22.3868 49.1982 22.5962 49.213 22.7756 49.2278C22.9402 49.2426 23.1047 49.2574 23.2543 49.2574H28.0556C31.3013 49.2574 34.6667 49.2574 37.9722 49.2426C38.6752 49.2426 39.1389 49.5385 39.438 50.1598C39.756 50.8477 40.0938 51.5357 40.4295 52.2194L40.4296 52.2194L40.4296 52.2195L40.4297 52.2198C40.5992 52.565 40.7682 52.9091 40.9338 53.2515L41.562 54.5385C41.5999 54.6134 41.6318 54.6884 41.6652 54.7671C41.6846 54.8126 41.7046 54.8595 41.7265 54.9083C41.7446 54.9441 41.7572 54.9799 41.771 55.019L41.771 55.0191C41.78 55.0445 41.7895 55.0714 41.8013 55.1006L42.265 56.1361H17.6004ZM23.0735 23C23.3076 23 23.5105 22.9048 23.6978 22.7302C24.3065 22.127 23.8226 21.4603 23.5885 21.1905C20.0301 17.2381 20.0301 11.7302 23.6041 7.79365C23.7914 7.60317 24.3377 6.88889 23.6978 6.26984C23.5261 6.09524 23.3076 6 23.0735 6C22.7613 6 22.4648 6.15873 22.1995 6.42857C20.2174 8.53968 19.0156 11.2381 19 13.6349C19 17.3968 20.0457 20.3175 22.1527 22.5397C22.4492 22.8413 22.7613 23 23.0735 23ZM42 14.5079C41.9252 17.6508 40.6349 20.3651 38.1291 22.5714C37.8112 22.8413 37.4559 23 37.1006 23C36.8201 23 36.577 22.9048 36.3526 22.7302C35.8477 22.3175 35.8851 21.7143 36.4648 21.2064C40.7284 17.3333 40.7471 11.6984 36.5022 7.8254C36.1656 7.52381 35.9973 7.19048 36.016 6.87302C36.0347 6.63492 36.1469 6.42857 36.3713 6.25397C36.5957 6.07937 36.8388 6 37.1006 6C37.4746 6 37.8673 6.1746 38.2226 6.47619C40.691 8.69841 41.9252 11.3333 42 14.5079ZM32.119 16.1212C32.681 15.5606 33 14.803 33 14C32.9848 12.3333 31.6785 11.0152 30.0228 11H30.0077C28.3672 11 27.0153 12.3333 27.0001 13.9697C26.9849 15.5909 28.352 16.9848 29.9773 17H30.0077C30.7975 17 31.5418 16.697 32.119 16.1212Z"></path>
  </mask>
  <path fill-rule="evenodd" clip-rule="evenodd" d="M18.4516 26.8966C18.7936 26.749 19.0734 26.3798 18.9646 26.0106C18.8868 25.7596 18.7003 25.4495 18.4205 25.1689C14.4409 21.0047 13.1195 16.1317 14.4564 10.6828C15.0782 8.11341 16.4618 5.78027 18.5604 3.71294C18.7936 3.49144 19.2755 2.91553 18.7936 2.38393C18.7003 2.28057 18.5448 2.1772 18.3583 2.07383C18.335 2.05907 18.3156 2.048 18.2961 2.03693L18.2961 2.03692L18.2961 2.0369L18.2961 2.0369L18.2961 2.0369C18.2767 2.02583 18.2572 2.01476 18.2339 2H17.8764C17.8289 2.02256 17.7814 2.05374 17.7408 2.08037L17.7408 2.08037C17.7283 2.0886 17.7164 2.09639 17.7054 2.10337C17.6694 2.12442 17.6333 2.14501 17.5979 2.1653C17.4342 2.25882 17.2818 2.34593 17.1924 2.443C14.5652 5.17484 12.9174 8.12817 12.2956 11.2144C11.6738 14.2859 12.0313 17.6084 13.3838 21.0786C14.1455 23.0573 15.4202 24.8884 17.2857 26.6751C17.5033 26.8819 17.7676 27 18.0318 27C18.1718 27 18.3117 26.9557 18.4516 26.8966ZM42.0594 26.6011C45.8472 23.4243 47.9456 19.1838 47.999 14.6625C48.0523 10.1413 46.025 5.87116 42.2906 2.65012C42.0772 2.47281 41.7927 2.31028 41.4904 2.14775L41.4474 2.12071C41.385 2.08121 41.3132 2.03579 41.2414 2H40.9035C40.3878 2.20686 40.0677 2.47281 40.0144 2.75355C39.9432 3.04905 40.1388 3.40366 40.5478 3.75827C43.8733 6.65426 45.6338 10.1265 45.7583 14.042C45.9006 18.3416 44.1223 22.1389 40.4589 25.3304C39.9077 25.8032 39.8721 26.3647 40.3522 26.7488C40.5656 26.9113 40.7968 27 41.0636 27C41.4014 27 41.7571 26.867 42.0594 26.6011ZM49.8632 56.1657H48.9209H47.5C46.7372 56.1657 46.109 56.1657 45.5256 56.1805H45.4658C44.5534 56.1805 44.1645 55.6183 43.9701 55.2041C43.2222 53.6805 42.4893 52.1716 41.7564 50.6479C38.6752 44.287 35.4744 37.7189 32.2735 31.284C31.765 30.2781 31.3611 29.213 31.1218 28.1183C30.8844 27.0032 30.9266 25.9317 30.9711 24.8028L30.9722 24.7751C30.9822 24.4294 30.9789 24.0771 30.9755 23.727C30.9739 23.5528 30.9722 23.3791 30.9722 23.2071V23C30.6731 23.0296 30.359 23.0592 30.0449 23.0592C29.7445 23.0592 29.444 23.0321 29.1305 23.0039L29.0876 23V24.0651C29.0876 25.3077 29.0876 26.5799 29.0726 27.8373C29.0726 28.2367 28.9679 28.6361 28.8034 28.9911L28.8018 28.9944C26.7383 33.2241 24.6747 37.4538 22.6111 41.6982C21.5043 43.9689 20.3937 46.2396 19.2831 48.5104C18.1725 50.7811 17.062 53.0518 15.9551 55.3225C15.6709 55.9142 15.2372 56.1805 14.594 56.1805H14.5491C13.9359 56.1657 13.2778 56.1657 12.4701 56.1657H11.0641H10.1517C9.80769 56.1657 9 56.2544 9 57.0828C9 57.3491 9.07479 57.5562 9.23932 57.7041C9.43376 57.8964 9.74786 58 10.1368 58H29.5363H49.8632C50.2521 58 50.5662 57.8964 50.7607 57.7041C50.9252 57.5414 51 57.3343 51 57.068C50.9701 56.2396 50.1325 56.1657 49.8632 56.1657ZM30.9722 36.0621L32.3932 35.7367L38.0919 47.3935H30.9722V36.0621ZM27.8312 35.2041L28.4744 35.4704L29.0427 35.6923V47.3935H21.8782L27.8312 35.2041ZM17.6004 56.1361L18.6624 53.9615C18.9514 53.3602 19.2405 52.7721 19.5295 52.1839L19.5296 52.1837L19.5298 52.1834L19.5299 52.1831C19.6745 51.8889 19.8191 51.5947 19.9637 51.2988C20.0235 51.1805 20.0833 51.0178 20.1431 50.8551L20.1432 50.855L20.1616 50.8072C20.3511 50.3159 20.5635 49.7654 21.0705 49.4645C21.4594 49.2278 21.9081 49.1982 22.1923 49.1982C22.3868 49.1982 22.5962 49.213 22.7756 49.2278C22.9402 49.2426 23.1047 49.2574 23.2543 49.2574H28.0556C31.3013 49.2574 34.6667 49.2574 37.9722 49.2426C38.6752 49.2426 39.1389 49.5385 39.438 50.1598C39.756 50.8477 40.0938 51.5357 40.4295 52.2194L40.4296 52.2194L40.4296 52.2195L40.4297 52.2198C40.5992 52.565 40.7682 52.9091 40.9338 53.2515L41.562 54.5385C41.5999 54.6134 41.6318 54.6884 41.6652 54.7671C41.6846 54.8126 41.7046 54.8595 41.7265 54.9083C41.7446 54.9441 41.7572 54.9799 41.771 55.019L41.771 55.0191C41.78 55.0445 41.7895 55.0714 41.8013 55.1006L42.265 56.1361H17.6004ZM23.0735 23C23.3076 23 23.5105 22.9048 23.6978 22.7302C24.3065 22.127 23.8226 21.4603 23.5885 21.1905C20.0301 17.2381 20.0301 11.7302 23.6041 7.79365C23.7914 7.60317 24.3377 6.88889 23.6978 6.26984C23.5261 6.09524 23.3076 6 23.0735 6C22.7613 6 22.4648 6.15873 22.1995 6.42857C20.2174 8.53968 19.0156 11.2381 19 13.6349C19 17.3968 20.0457 20.3175 22.1527 22.5397C22.4492 22.8413 22.7613 23 23.0735 23ZM42 14.5079C41.9252 17.6508 40.6349 20.3651 38.1291 22.5714C37.8112 22.8413 37.4559 23 37.1006 23C36.8201 23 36.577 22.9048 36.3526 22.7302C35.8477 22.3175 35.8851 21.7143 36.4648 21.2064C40.7284 17.3333 40.7471 11.6984 36.5022 7.8254C36.1656 7.52381 35.9973 7.19048 36.016 6.87302C36.0347 6.63492 36.1469 6.42857 36.3713 6.25397C36.5957 6.07937 36.8388 6 37.1006 6C37.4746 6 37.8673 6.1746 38.2226 6.47619C40.691 8.69841 41.9252 11.3333 42 14.5079ZM32.119 16.1212C32.681 15.5606 33 14.803 33 14C32.9848 12.3333 31.6785 11.0152 30.0228 11H30.0077C28.3672 11 27.0153 12.3333 27.0001 13.9697C26.9849 15.5909 28.352 16.9848 29.9773 17H30.0077C30.7975 17 31.5418 16.697 32.119 16.1212Z" fill="#4600B9"></path>
  <path d="M18.9646 26.0106L19.4442 25.8692L19.4422 25.8627L18.9646 26.0106ZM18.4516 26.8966L18.646 27.3573L18.6498 27.3557L18.4516 26.8966ZM18.4205 25.1689L18.0589 25.5145L18.0665 25.522L18.4205 25.1689ZM14.4564 10.6828L14.942 10.802L14.9424 10.8004L14.4564 10.6828ZM18.5604 3.71294L18.216 3.35036L18.2095 3.35674L18.5604 3.71294ZM18.7936 2.38393L18.4224 2.7189L18.4231 2.71975L18.7936 2.38393ZM18.3583 2.07383L18.0908 2.49626L18.1032 2.50409L18.116 2.51118L18.3583 2.07383ZM18.2961 2.03693L18.5438 1.60241L18.533 1.59659L18.2961 2.03693ZM18.2961 2.03692L18.0356 2.46368L18.0472 2.47079L18.0593 2.47725L18.2961 2.03692ZM18.2961 2.0369L18.5566 1.61015L18.5447 1.60285L18.5324 1.59624L18.2961 2.0369ZM18.2961 2.0369L18.0582 2.47667L18.0598 2.47756L18.2961 2.0369ZM18.2961 2.0369L18.0484 2.4714L18.0582 2.47666L18.2961 2.0369ZM18.2339 2L18.5014 1.57758L18.3789 1.5H18.2339V2ZM17.8764 2V1.5H17.7637L17.6619 1.54835L17.8764 2ZM17.7408 2.08037L18.0055 2.50473L18.0152 2.49837L17.7408 2.08037ZM17.7408 2.08037L17.4761 1.65601L17.4665 1.66237L17.7408 2.08037ZM17.7054 2.10337L17.9577 2.53503L17.9654 2.53054L17.9729 2.52579L17.7054 2.10337ZM17.5979 2.1653L17.3497 1.7312L17.3497 1.7312L17.5979 2.1653ZM17.1924 2.443L17.5529 2.78966L17.5602 2.78176L17.1924 2.443ZM12.2956 11.2144L12.7857 11.3136L12.7858 11.3132L12.2956 11.2144ZM13.3838 21.0786L13.8504 20.8989L13.8497 20.897L13.3838 21.0786ZM17.2857 26.6751L16.9398 27.0362L16.9413 27.0376L17.2857 26.6751ZM42.0594 26.6011L41.738 26.2179L41.7292 26.2257L42.0594 26.6011ZM42.2906 2.65012L42.6172 2.27143L42.6101 2.26554L42.2906 2.65012ZM41.4904 2.14775L41.2239 2.57087L41.2385 2.58002L41.2536 2.58814L41.4904 2.14775ZM41.4474 2.12071L41.1801 2.54324L41.181 2.54383L41.4474 2.12071ZM41.2414 2L41.4645 1.55253L41.3591 1.5H41.2414V2ZM40.9035 2V1.5H40.807L40.7174 1.53594L40.9035 2ZM40.0144 2.75355L40.5005 2.87056L40.5033 2.85879L40.5056 2.8469L40.0144 2.75355ZM40.5478 3.75827L40.8762 3.38121L40.8754 3.38049L40.5478 3.75827ZM45.7583 14.042L45.2586 14.0578L45.2586 14.0585L45.7583 14.042ZM40.4589 25.3304L40.7845 25.7099L40.7874 25.7074L40.4589 25.3304ZM40.3522 26.7488L40.0398 27.1393L40.0493 27.1466L40.3522 26.7488ZM45.5256 56.1805V56.6806L45.5383 56.6803L45.5256 56.1805ZM43.9701 55.2041L44.4228 54.9916L44.4189 54.9838L43.9701 55.2041ZM41.7564 50.6479L42.207 50.4312L42.2064 50.43L41.7564 50.6479ZM32.2735 31.284L32.7212 31.0613L32.7197 31.0584L32.2735 31.284ZM31.1218 28.1183L30.6327 28.2224L30.6333 28.2251L31.1218 28.1183ZM30.9711 24.8028L31.4707 24.8225L31.4707 24.8224L30.9711 24.8028ZM30.9722 24.7751L31.4719 24.7948L31.472 24.7896L30.9722 24.7751ZM30.9755 23.727L31.4755 23.7223V23.7223L30.9755 23.727ZM30.9722 23H31.4722V22.4481L30.923 22.5024L30.9722 23ZM29.1305 23.0039L29.1754 22.5059L29.1754 22.5059L29.1305 23.0039ZM29.0876 23L29.1325 22.502L28.5876 22.453V23H29.0876ZM29.0726 27.8373L28.5726 27.8313V27.8373H29.0726ZM28.8034 28.9911L29.2529 29.2104L29.2571 29.2014L28.8034 28.9911ZM28.8018 28.9944L29.2512 29.2136L29.2512 29.2136L28.8018 28.9944ZM22.6111 41.6982L23.0606 41.9173L23.0608 41.9168L22.6111 41.6982ZM15.9551 55.3225L15.5057 55.1034L15.5044 55.106L15.9551 55.3225ZM14.5491 56.1805L14.5371 56.6805H14.5491V56.1805ZM9.23932 57.7041L9.59091 57.3486L9.58246 57.3403L9.57362 57.3323L9.23932 57.7041ZM50.7607 57.7041L50.4091 57.3486L50.4091 57.3486L50.7607 57.7041ZM51 57.068H51.5V57.059L51.4997 57.05L51 57.068ZM32.3932 35.7367L32.8424 35.5171L32.6682 35.1608L32.2815 35.2493L32.3932 35.7367ZM30.9722 36.0621L30.8606 35.5747L30.4722 35.6637V36.0621H30.9722ZM38.0919 47.3935V47.8935H38.8929L38.5411 47.1739L38.0919 47.3935ZM30.9722 47.3935H30.4722V47.8935H30.9722V47.3935ZM28.4744 35.4704L28.2831 35.9325L28.2925 35.9362L28.4744 35.4704ZM27.8312 35.2041L28.0225 34.7422L27.5882 34.5624L27.3819 34.9847L27.8312 35.2041ZM29.0427 35.6923H29.5427V35.3508L29.2246 35.2265L29.0427 35.6923ZM29.0427 47.3935V47.8935H29.5427V47.3935H29.0427ZM21.8782 47.3935L21.4289 47.1741L21.0776 47.8935H21.8782V47.3935ZM18.6624 53.9615L19.1117 54.181L19.113 54.1782L18.6624 53.9615ZM17.6004 56.1361L17.1511 55.9167L16.7998 56.6361H17.6004V56.1361ZM19.5295 52.1839L19.9783 52.4045L19.9787 52.4036L19.5295 52.1839ZM19.5299 52.1831L19.0812 51.9626L19.0807 51.9634L19.5299 52.1831ZM19.9637 51.2988L19.5174 51.0732L19.5145 51.0793L19.9637 51.2988ZM20.1431 50.8551L20.6124 51.0276L20.6167 51.016L20.6204 51.0042L20.1431 50.8551ZM20.1432 50.855L19.6767 50.675L19.6708 50.6903L19.6659 50.7059L20.1432 50.855ZM20.1616 50.8072L20.6281 50.9873L20.6281 50.9872L20.1616 50.8072ZM21.0705 49.4645L21.3257 49.8945L21.3305 49.8916L21.0705 49.4645ZM22.7756 49.2278L22.8204 48.7298L22.8167 48.7295L22.7756 49.2278ZM37.9722 49.2426V48.7426L37.97 48.7426L37.9722 49.2426ZM39.438 50.1598L39.892 49.95L39.8885 49.9429L39.438 50.1598ZM40.4295 52.2194L39.9807 52.4397L39.9823 52.443L40.4295 52.2194ZM40.4296 52.2195L40.8804 52.0031L40.8768 51.9959L40.4296 52.2195ZM40.4297 52.2198L39.979 52.4362L39.9809 52.4402L40.4297 52.2198ZM40.9338 53.2515L40.4836 53.4692L40.4844 53.4708L40.9338 53.2515ZM41.562 54.5385L41.1126 54.7578L41.1157 54.764L41.562 54.5385ZM41.6652 54.7671L41.2052 54.9628L41.2052 54.9629L41.6652 54.7671ZM41.7265 54.9083L41.2704 55.1132L41.2751 55.1237L41.2803 55.1339L41.7265 54.9083ZM41.771 55.019L42.2454 54.8609L42.2426 54.8528L41.771 55.019ZM41.771 55.0191L41.2966 55.1772L41.2995 55.1853L41.771 55.0191ZM41.8013 55.1006L41.3378 55.2881L41.3412 55.2966L41.3449 55.3049L41.8013 55.1006ZM42.265 56.1361V56.6361H43.0367L42.7213 55.9318L42.265 56.1361ZM23.6978 22.7302L24.0387 23.0959L24.0443 23.0907L24.0497 23.0853L23.6978 22.7302ZM23.5885 21.1905L23.9663 20.8628L23.9601 20.8559L23.5885 21.1905ZM23.6041 7.79365L23.2476 7.4431L23.2406 7.45019L23.2339 7.45755L23.6041 7.79365ZM23.6978 6.26984L23.3411 6.62051L23.3501 6.6292L23.6978 6.26984ZM22.1995 6.42857L21.8429 6.07792L21.835 6.08633L22.1995 6.42857ZM19 13.6349L18.5 13.6317V13.6349H19ZM22.1527 22.5397L21.7898 22.8838L21.7961 22.8902L22.1527 22.5397ZM38.1291 22.5714L38.4527 22.9527L38.4595 22.9467L38.1291 22.5714ZM42 14.5079L42.4999 14.5198L42.5001 14.508L42.4999 14.4962L42 14.5079ZM36.3526 22.7302L36.036 23.1174L36.0455 23.1248L36.3526 22.7302ZM36.4648 21.2064L36.7943 21.5825L36.801 21.5765L36.4648 21.2064ZM36.5022 7.8254L36.8392 7.45602L36.8358 7.45301L36.5022 7.8254ZM36.016 6.87302L35.5174 6.83386L35.5168 6.84361L36.016 6.87302ZM36.3713 6.25397L36.6783 6.64859V6.64859L36.3713 6.25397ZM38.2226 6.47619L38.5571 6.10459L38.5517 6.09972L38.5461 6.095L38.2226 6.47619ZM33 14H33.5L33.5 13.9954L33 14ZM32.119 16.1212L32.4721 16.4752L32.119 16.1212ZM30.0228 11L30.0274 10.5H30.0228V11ZM27.0001 13.9697L27.5001 13.9744L27.5001 13.9743L27.0001 13.9697ZM29.9773 17L29.9726 17.5H29.9773V17ZM18.485 26.152C18.4903 26.17 18.4942 26.2066 18.4544 26.2697C18.4119 26.3369 18.3369 26.4015 18.2534 26.4376L18.6498 27.3557C18.9082 27.2441 19.1441 27.0503 19.2999 26.8037C19.4582 26.553 19.5477 26.2205 19.4442 25.8693L18.485 26.152ZM18.0665 25.522C18.3008 25.757 18.4377 25.9993 18.4869 26.1585L19.4422 25.8627C19.336 25.5199 19.0998 25.142 18.7745 24.8158L18.0665 25.522ZM13.9708 10.5637C12.5922 16.1825 13.9643 21.2297 18.059 25.5144L18.782 24.8235C14.9175 20.7798 13.6468 16.081 14.942 10.802L13.9708 10.5637ZM18.2095 3.35674C16.0535 5.48055 14.617 7.89364 13.9704 10.5652L14.9424 10.8004C15.5395 8.33317 16.87 6.07999 18.9113 4.06913L18.2095 3.35674ZM18.4231 2.71975C18.4822 2.78495 18.4946 2.83015 18.4983 2.85564C18.5026 2.88593 18.4997 2.92872 18.477 2.989C18.4269 3.1225 18.3119 3.25934 18.216 3.35042L18.9047 4.07545C19.042 3.94503 19.2846 3.68317 19.4132 3.34045C19.48 3.16261 19.5217 2.94791 19.4882 2.71378C19.4539 2.47486 19.3459 2.24871 19.164 2.04812L18.4231 2.71975ZM18.116 2.51118C18.2965 2.61124 18.3886 2.68143 18.4224 2.7189L19.1648 2.04897C19.012 1.8797 18.7931 1.74316 18.6006 1.63649L18.116 2.51118ZM18.0485 2.47132C18.068 2.48242 18.0783 2.48837 18.0908 2.49626L18.6258 1.65141C18.5916 1.62977 18.5631 1.61358 18.5437 1.60254L18.0485 2.47132ZM18.0593 2.47725L18.0593 2.47726L18.533 1.59659L18.533 1.59658L18.0593 2.47725ZM18.0356 2.46366L18.0356 2.46368L18.5567 1.61016L18.5566 1.61015L18.0356 2.46366ZM18.0598 2.47756L18.0598 2.47757L18.5324 1.59624L18.5323 1.59624L18.0598 2.47756ZM18.0582 2.47666L18.0582 2.47666L18.534 1.59713L18.534 1.59713L18.0582 2.47666ZM17.9664 2.42242C18.0006 2.44406 18.0291 2.46026 18.0485 2.47129L18.5437 1.6025C18.5242 1.5914 18.5139 1.58545 18.5014 1.57758L17.9664 2.42242ZM17.8764 2.5H18.2339V1.5H17.8764V2.5ZM18.0152 2.49837C18.0364 2.48444 18.0516 2.47453 18.0662 2.46564C18.0806 2.45685 18.0883 2.45289 18.0909 2.45165L17.6619 1.54835C17.5779 1.58824 17.5016 1.63931 17.4665 1.66236L18.0152 2.49837ZM18.0054 2.50462L18.0054 2.50461L17.4762 1.65612L17.4762 1.65612L18.0054 2.50462ZM17.9729 2.52579C17.988 2.51622 18.0035 2.50605 18.0152 2.49837L17.4665 1.66237C17.4531 1.67115 17.4448 1.67657 17.4379 1.68094L17.9729 2.52579ZM17.846 2.5994C17.8811 2.57931 17.9192 2.55752 17.9577 2.53503L17.4531 1.67171C17.4195 1.69133 17.3856 1.71072 17.3497 1.7312L17.846 2.5994ZM17.5602 2.78176C17.5601 2.78186 17.5615 2.78028 17.5651 2.77706C17.5686 2.77385 17.5737 2.76947 17.5807 2.76391C17.5951 2.75251 17.6147 2.73846 17.6409 2.72128C17.6958 2.68544 17.761 2.64795 17.846 2.5994L17.3497 1.7312C17.213 1.80938 16.9786 1.93707 16.8246 2.10424L17.5602 2.78176ZM12.7858 11.3132C13.3853 8.33758 14.9781 5.46685 17.5528 2.78958L16.832 2.09642C14.1524 4.88283 12.4496 7.91877 11.8055 11.1157L12.7858 11.3132ZM13.8497 20.897C12.5259 17.5005 12.186 14.2759 12.7857 11.3136L11.8055 11.1152C11.1616 14.2959 11.5367 17.7163 12.9179 21.2601L13.8497 20.897ZM17.6315 26.314C15.8081 24.5675 14.5807 22.796 13.8504 20.8989L12.9172 21.2582C13.7103 23.3186 15.0324 25.2092 16.9398 27.0362L17.6315 26.314ZM18.0318 26.5C17.9187 26.5 17.7728 26.4482 17.63 26.3126L16.9413 27.0376C17.2338 27.3155 17.6165 27.5 18.0318 27.5V26.5ZM18.2571 26.436C18.137 26.4867 18.0711 26.5 18.0318 26.5V27.5C18.2725 27.5 18.4863 27.4247 18.646 27.3573L18.2571 26.436ZM47.499 14.6566C47.4475 19.0187 45.425 23.1259 41.7381 26.218L42.3807 26.9842C46.2695 23.7228 48.4437 19.3489 48.4989 14.6684L47.499 14.6566ZM41.964 3.02874C45.5981 6.1632 47.5504 10.2971 47.499 14.6566L48.4989 14.6684C48.5542 9.98537 46.452 5.57911 42.6172 2.2715L41.964 3.02874ZM41.2536 2.58814C41.5577 2.75162 41.8008 2.89327 41.9711 3.0347L42.6101 2.26554C42.3535 2.05236 42.0277 1.86894 41.7271 1.70736L41.2536 2.58814ZM41.181 2.54383L41.2239 2.57087L41.7568 1.72464L41.7138 1.69759L41.181 2.54383ZM41.0183 2.44747C41.0635 2.46999 41.1138 2.50133 41.1801 2.54324L41.7147 1.69818C41.6561 1.66109 41.5629 1.60159 41.4645 1.55253L41.0183 2.44747ZM40.9035 2.5H41.2414V1.5H40.9035V2.5ZM40.5056 2.8469C40.5031 2.85969 40.5069 2.8164 40.6078 2.73134C40.7057 2.64887 40.8632 2.5549 41.0896 2.46406L40.7174 1.53594C40.4281 1.65196 40.1678 1.79439 39.9633 1.9668C39.7618 2.13661 39.5789 2.36667 39.5231 2.6602L40.5056 2.8469ZM40.8754 3.38049C40.6995 3.22802 40.5949 3.09662 40.5417 2.99741C40.5159 2.94934 40.5057 2.91538 40.502 2.89519C40.5002 2.88535 40.4999 2.87896 40.5 2.87555C40.5001 2.87225 40.5004 2.87082 40.5005 2.87056L39.5282 2.63653C39.4557 2.938 39.5305 3.22776 39.6604 3.47008C39.7895 3.71071 39.9872 3.93392 40.2203 4.13606L40.8754 3.38049ZM46.258 14.0261C46.1286 9.95327 44.2918 6.35573 40.8762 3.38121L40.2195 4.13534C43.4547 6.95278 45.1391 10.2997 45.2586 14.0578L46.258 14.0261ZM40.7874 25.7074C44.5479 22.4312 46.4059 18.4955 46.258 14.0254L45.2586 14.0585C45.3952 18.1877 43.6966 21.8466 40.1305 24.9534L40.7874 25.7074ZM40.6646 26.3584C40.5278 26.2489 40.5137 26.1623 40.5175 26.1087C40.5227 26.0365 40.5727 25.8915 40.7844 25.7099L40.1334 24.9508C39.7939 25.242 39.5505 25.6142 39.5201 26.037C39.4884 26.4784 39.6966 26.8646 40.0399 27.1392L40.6646 26.3584ZM41.0636 26.5C40.9203 26.5 40.7934 26.4563 40.6552 26.351L40.0493 27.1466C40.3379 27.3664 40.6733 27.5 41.0636 27.5V26.5ZM41.7292 26.2257C41.5104 26.4181 41.2699 26.5 41.0636 26.5V27.5C41.5329 27.5 42.0038 27.3159 42.3897 26.9765L41.7292 26.2257ZM48.9209 56.6657H49.8632V55.6657H48.9209V56.6657ZM47.5 56.6657H48.9209V55.6657H47.5V56.6657ZM45.5383 56.6803C46.1141 56.6657 46.7355 56.6657 47.5 56.6657V55.6657C46.7389 55.6657 46.1039 55.6656 45.513 55.6806L45.5383 56.6803ZM45.4658 56.6805H45.5256V55.6805H45.4658V56.6805ZM43.5175 55.4166C43.6306 55.6576 43.8156 55.9763 44.1325 56.235C44.4592 56.5016 44.8967 56.6805 45.4658 56.6805V55.6805C45.1225 55.6805 44.9094 55.5783 44.7649 55.4603C44.6106 55.3344 44.504 55.1649 44.4227 54.9917L43.5175 55.4166ZM41.3058 50.8647C42.0393 52.3895 42.7728 53.8995 43.5212 55.4244L44.4189 54.9838C43.6717 53.4614 42.9394 51.9537 42.207 50.4312L41.3058 50.8647ZM31.8258 31.5067C35.0255 37.9393 38.2255 44.5056 41.3064 50.8659L42.2064 50.43C39.1249 44.0684 35.9232 37.4986 32.7212 31.0613L31.8258 31.5067ZM30.6333 28.2251C30.8831 29.3677 31.3031 30.4727 31.8273 31.5096L32.7197 31.0584C32.2268 30.0835 31.8391 29.0583 31.6103 28.0116L30.6333 28.2251ZM30.4715 24.7831C30.4274 25.9032 30.3803 27.0365 30.6328 28.2224L31.6108 28.0142C31.3885 26.9699 31.4259 25.9602 31.4707 24.8225L30.4715 24.7831ZM30.4726 24.7555L30.4715 24.7832L31.4707 24.8224L31.4718 24.7948L30.4726 24.7555ZM30.4756 23.7318C30.4789 24.0836 30.4821 24.4262 30.4724 24.7607L31.472 24.7896C31.4823 24.4326 31.4788 24.0707 31.4755 23.7223L30.4756 23.7318ZM30.4722 23.2071C30.4722 23.3819 30.4739 23.558 30.4756 23.7318L31.4755 23.7223C31.4738 23.5476 31.4722 23.3764 31.4722 23.2071H30.4722ZM30.4722 23V23.2071H31.4722V23H30.4722ZM30.0449 23.5592C30.3868 23.5592 30.7239 23.527 31.0214 23.4976L30.923 22.5024C30.6223 22.5322 30.3311 22.5592 30.0449 22.5592V23.5592ZM29.0857 23.5018C29.3951 23.5297 29.7181 23.5592 30.0449 23.5592V22.5592C29.7708 22.5592 29.493 22.5345 29.1754 22.5059L29.0857 23.5018ZM29.0428 23.498L29.0857 23.5019L29.1754 22.5059L29.1325 22.502L29.0428 23.498ZM29.5876 24.0651V23H28.5876V24.0651H29.5876ZM29.5726 27.8432C29.5876 26.5824 29.5876 25.3072 29.5876 24.0651H28.5876C28.5876 25.3082 28.5876 26.5774 28.5727 27.8313L29.5726 27.8432ZM29.2571 29.2014C29.4464 28.7929 29.5726 28.3219 29.5726 27.8373H28.5726C28.5726 28.1515 28.4895 28.4793 28.3498 28.7809L29.2571 29.2014ZM29.2512 29.2136L29.2528 29.2103L28.354 28.7719L28.3524 28.7752L29.2512 29.2136ZM23.0608 41.9168C25.1242 37.6727 27.1876 33.4434 29.2512 29.2136L28.3525 28.7752C26.2889 33.0048 24.2252 37.2348 22.1614 41.4796L23.0608 41.9168ZM19.7323 48.73C20.8428 46.4594 21.9536 44.1884 23.0606 41.9173L22.1617 41.4791C21.055 43.7495 19.9446 46.0199 18.834 48.2907L19.7323 48.73ZM16.4046 55.5416C17.5112 53.2712 18.6217 51.0008 19.7323 48.73L18.834 48.2907C17.7234 50.5613 16.6127 52.8323 15.5057 55.1034L16.4046 55.5416ZM14.594 56.6805C14.9856 56.6805 15.3526 56.5988 15.6746 56.3971C15.9968 56.1953 16.2329 55.899 16.4058 55.539L15.5044 55.106C15.3932 55.3377 15.2703 55.4704 15.1438 55.5496C15.017 55.629 14.8456 55.6805 14.594 55.6805V56.6805ZM14.5491 56.6805H14.594V55.6805H14.5491V56.6805ZM12.4701 56.6657C13.2794 56.6657 13.9311 56.6657 14.5371 56.6803L14.5612 55.6806C13.9407 55.6656 13.2761 55.6657 12.4701 55.6657V56.6657ZM11.0641 56.6657H12.4701V55.6657H11.0641V56.6657ZM10.1517 56.6657H11.0641V55.6657H10.1517V56.6657ZM9.5 57.0828C9.5 56.9607 9.5285 56.8969 9.55085 56.8625C9.57484 56.8255 9.61299 56.7904 9.6752 56.7584C9.81409 56.6871 10.0065 56.6657 10.1517 56.6657V55.6657C9.95295 55.6657 9.56945 55.6886 9.21849 55.8688C9.03578 55.9626 8.85051 56.1049 8.7123 56.3176C8.57246 56.5329 8.5 56.7908 8.5 57.0828H9.5ZM9.57362 57.3323C9.54341 57.3052 9.5 57.2514 9.5 57.0828H8.5C8.5 57.4468 8.60616 57.8073 8.90502 58.076L9.57362 57.3323ZM10.1368 57.5C9.82356 57.5 9.65833 57.4153 9.59091 57.3486L8.88772 58.0596C9.20919 58.3776 9.67217 58.5 10.1368 58.5V57.5ZM29.5363 57.5H10.1368V58.5H29.5363V57.5ZM49.8632 57.5H29.5363V58.5H49.8632V57.5ZM50.4091 57.3486C50.3417 57.4153 50.1764 57.5 49.8632 57.5V58.5C50.3278 58.5 50.7908 58.3776 51.1123 58.0596L50.4091 57.3486ZM50.5 57.068C50.5 57.2301 50.4596 57.2987 50.4091 57.3486L51.1123 58.0596C51.3908 57.7842 51.5 57.4385 51.5 57.068H50.5ZM49.8632 56.6657C49.9683 56.6657 50.1544 56.6826 50.2997 56.7544C50.3661 56.7872 50.4102 56.8248 50.4388 56.8655C50.4652 56.9029 50.496 56.9673 50.5003 57.0861L51.4997 57.05C51.477 56.4224 51.1258 56.0473 50.743 55.858C50.3947 55.6858 50.0274 55.6657 49.8632 55.6657V56.6657ZM32.2815 35.2493L30.8606 35.5747L31.0838 36.5495L32.5048 36.2241L32.2815 35.2493ZM38.5411 47.1739L32.8424 35.5171L31.944 35.9563L37.6427 47.6131L38.5411 47.1739ZM30.9722 47.8935H38.0919V46.8935H30.9722V47.8935ZM30.4722 36.0621V47.3935H31.4722V36.0621H30.4722ZM28.6656 35.0084L28.0225 34.7422L27.6399 35.6661L28.2831 35.9324L28.6656 35.0084ZM29.2246 35.2265L28.6562 35.0047L28.2925 35.9362L28.8609 36.1581L29.2246 35.2265ZM29.5427 47.3935V35.6923H28.5427V47.3935H29.5427ZM21.8782 47.8935H29.0427V46.8935H21.8782V47.8935ZM27.3819 34.9847L21.4289 47.1741L22.3275 47.6129L28.2805 35.4236L27.3819 34.9847ZM18.2131 53.7421L17.1511 55.9167L18.0497 56.3555L19.1117 54.1809L18.2131 53.7421ZM19.0808 51.9634C18.7919 52.5513 18.5019 53.1413 18.2118 53.7449L19.113 54.1782C19.401 53.5791 19.6891 52.9929 19.9783 52.4045L19.0808 51.9634ZM19.0805 51.964L19.0804 51.9642L19.9787 52.4036L19.9788 52.4034L19.0805 51.964ZM19.0806 51.9637L19.0805 51.964L19.9788 52.4034L19.9789 52.4031L19.0806 51.9637ZM19.0807 51.9634L19.0806 51.9637L19.9789 52.4031L19.979 52.4028L19.0807 51.9634ZM19.5145 51.0793C19.3701 51.3746 19.2258 51.6683 19.0812 51.9626L19.9786 52.4037C20.1232 52.1095 20.268 51.8148 20.4129 51.5183L19.5145 51.0793ZM19.6739 50.6825C19.6104 50.8551 19.5613 50.9865 19.5175 51.0732L20.4099 51.5244C20.4857 51.3744 20.5562 51.1805 20.6124 51.0276L19.6739 50.6825ZM19.6659 50.7059L19.6659 50.7059L20.6204 51.0042L20.6204 51.0042L19.6659 50.7059ZM19.6952 50.6272L19.6767 50.675L20.6096 51.0351L20.6281 50.9873L19.6952 50.6272ZM20.8154 49.0345C20.1354 49.438 19.8726 50.1672 19.6951 50.6273L20.6281 50.9872C20.8296 50.4647 20.9917 50.0927 21.3257 49.8945L20.8154 49.0345ZM22.1923 48.6982C21.8861 48.6982 21.3213 48.7266 20.8106 49.0374L21.3305 49.8916C21.5975 49.7291 21.9302 49.6982 22.1923 49.6982V48.6982ZM22.8167 48.7295C22.6352 48.7145 22.4086 48.6982 22.1923 48.6982V49.6982C22.3649 49.6982 22.5571 49.7115 22.7346 49.7261L22.8167 48.7295ZM23.2543 48.7574C23.1314 48.7574 22.9903 48.7451 22.8204 48.7298L22.7309 49.7258C22.89 49.7401 23.078 49.7574 23.2543 49.7574V48.7574ZM28.0556 48.7574H23.2543V49.7574H28.0556V48.7574ZM37.97 48.7426C34.6657 48.7574 31.3015 48.7574 28.0556 48.7574V49.7574C31.3011 49.7574 34.6676 49.7574 37.9745 49.7426L37.97 48.7426ZM39.8885 49.9429C39.7081 49.5681 39.4609 49.2575 39.1227 49.0449C38.7845 48.8323 38.3951 48.7426 37.9722 48.7426V49.7426C38.2524 49.7426 38.4463 49.8009 38.5905 49.8915C38.7346 49.9821 38.8688 50.1301 38.9875 50.3767L39.8885 49.9429ZM40.8783 51.999C40.5422 51.3144 40.207 50.6317 39.8919 49.95L38.9842 50.3695C39.305 51.0638 39.6455 51.757 39.9807 52.4397L40.8783 51.999ZM40.8768 51.9958L40.8767 51.9958L39.9823 52.443L39.9823 52.443L40.8768 51.9958ZM40.8768 51.9959L40.8768 51.9958L39.9823 52.443L39.9824 52.4431L40.8768 51.9959ZM40.8805 52.0034L40.8804 52.0032L39.9788 52.4359L39.979 52.4362L40.8805 52.0034ZM41.3839 53.0338C41.2175 52.6898 41.0479 52.3444 40.8786 51.9994L39.9809 52.4402C40.1505 52.7856 40.3188 53.1283 40.4836 53.4691L41.3839 53.0338ZM42.0113 54.3191L41.3831 53.0322L40.4844 53.4708L41.1126 54.7578L42.0113 54.3191ZM42.1253 54.5713C42.0928 54.4949 42.0547 54.4049 42.0082 54.3129L41.1157 54.764C41.145 54.8219 41.1707 54.8818 41.2052 54.9628L42.1253 54.5713ZM42.1826 54.7033C42.163 54.6598 42.145 54.6174 42.1253 54.5713L41.2052 54.9629C41.2243 55.0078 41.2461 55.0592 41.2704 55.1132L42.1826 54.7033ZM42.2426 54.8528C42.2304 54.8183 42.2077 54.752 42.1727 54.6827L41.2803 55.1339C41.2801 55.1336 41.2814 55.136 41.2845 55.144C41.2882 55.1534 41.292 55.1642 41.2994 55.1852L42.2426 54.8528ZM42.2454 54.8609L42.2453 54.8609L41.2967 55.1771L41.2967 55.1772L42.2454 54.8609ZM42.2648 54.9131C42.2578 54.8959 42.2519 54.8791 42.2426 54.8528L41.2995 55.1853C41.3082 55.21 41.3211 55.2469 41.3378 55.2881L42.2648 54.9131ZM42.7213 55.9318L42.2576 54.8963L41.3449 55.3049L41.8086 56.3404L42.7213 55.9318ZM17.6004 56.6361H42.265V55.6361H17.6004V56.6361ZM23.3568 22.3644C23.2398 22.4735 23.1536 22.5 23.0735 22.5V23.5C23.4616 23.5 23.7812 23.336 24.0387 23.0959L23.3568 22.3644ZM23.2108 21.5181C23.3148 21.638 23.4324 21.8018 23.4763 21.9651C23.4963 22.0393 23.4975 22.1012 23.4844 22.1557C23.4718 22.2078 23.4393 22.2824 23.3458 22.375L24.0497 23.0853C24.496 22.6431 24.5573 22.1343 24.442 21.7055C24.3377 21.3172 24.0963 21.0128 23.9662 20.8628L23.2108 21.5181ZM23.2339 7.45755C19.4866 11.5849 19.4875 17.3827 23.2169 21.525L23.9601 20.8559C20.5727 17.0935 20.5736 11.8754 23.9743 8.12975L23.2339 7.45755ZM23.3501 6.6292C23.4469 6.72283 23.4796 6.79951 23.492 6.85362C23.5052 6.91147 23.5025 6.97757 23.4804 7.05501C23.432 7.22421 23.3097 7.37997 23.2476 7.4431L23.9607 8.14421C24.0859 8.01685 24.3303 7.72023 24.4419 7.32991C24.5644 6.90137 24.5182 6.36785 24.0454 5.91048L23.3501 6.6292ZM23.0735 6.5C23.1651 6.5 23.2575 6.5352 23.3412 6.6204L24.0543 5.91929C23.7947 5.65528 23.4501 5.5 23.0735 5.5V6.5ZM22.556 6.77913C22.7646 6.56695 22.9406 6.5 23.0735 6.5V5.5C22.5821 5.5 22.165 5.75051 21.843 6.07802L22.556 6.77913ZM19.5 13.6382C19.5146 11.3932 20.6487 8.81081 22.564 6.77081L21.835 6.08633C19.7861 8.26856 18.5166 11.083 18.5 13.6317L19.5 13.6382ZM22.5155 22.1957C20.5146 20.0853 19.5 17.2976 19.5 13.6349H18.5C18.5 17.4961 19.5768 20.5496 21.7898 22.8837L22.5155 22.1957ZM23.0735 22.5C22.9408 22.5 22.7492 22.4332 22.5092 22.1891L21.7961 22.8902C22.1492 23.2493 22.5819 23.5 23.0735 23.5V22.5ZM38.4595 22.9467C41.0643 20.6532 42.4216 17.8095 42.4999 14.5198L41.5001 14.496C41.4288 17.4921 40.2055 20.077 37.7987 22.1962L38.4595 22.9467ZM37.1006 23.5C37.6071 23.5 38.0729 23.2749 38.4526 22.9526L37.8055 22.1902C37.5494 22.4076 37.3046 22.5 37.1006 22.5V23.5ZM36.0455 23.1248C36.3449 23.3577 36.6936 23.5 37.1006 23.5V22.5C36.9465 22.5 36.809 22.4518 36.6596 22.3355L36.0455 23.1248ZM36.1353 20.8303C35.7812 21.1405 35.5339 21.5314 35.5032 21.9689C35.4712 22.4237 35.6805 22.8266 36.0361 23.1173L36.669 22.343C36.5198 22.2211 36.4953 22.1159 36.5007 22.039C36.5073 21.9448 36.5686 21.7802 36.7943 21.5824L36.1353 20.8303ZM36.1652 8.19476C38.1957 10.0474 39.1807 12.2943 39.1742 14.5144C39.1676 16.7347 38.1691 18.9827 36.1286 20.8363L36.801 21.5765C39.0241 19.557 40.1667 17.051 40.1742 14.5173C40.1816 11.9835 39.0536 9.47642 36.8392 7.45603L36.1652 8.19476ZM35.5168 6.84361C35.486 7.36749 35.7662 7.83734 36.1685 8.19779L36.8358 7.45301C36.5649 7.21028 36.5086 7.01346 36.5151 6.90242L35.5168 6.84361ZM36.0642 5.85935C35.7415 6.11048 35.5484 6.44049 35.5175 6.83387L36.5144 6.91216C36.5209 6.82935 36.5523 6.74667 36.6783 6.64859L36.0642 5.85935ZM37.1006 5.5C36.7278 5.5 36.3766 5.61628 36.0642 5.85935L36.6783 6.64859C36.8147 6.54245 36.9497 6.5 37.1006 6.5V5.5ZM38.5461 6.095C38.1318 5.74328 37.6285 5.5 37.1006 5.5V6.5C37.3206 6.5 37.6028 6.60592 37.899 6.85738L38.5461 6.095ZM42.4999 14.4962C42.4217 11.1778 41.1232 8.41471 38.5571 6.10459L37.888 6.84779C40.2588 8.98212 41.4287 11.4888 41.5001 14.5197L42.4999 14.4962ZM32.5 14C32.5 14.669 32.2347 15.2996 31.7659 15.7672L32.4721 16.4752C33.1273 15.8216 33.5 14.937 33.5 14H32.5ZM30.0183 11.5C31.3976 11.5126 32.4873 12.6067 32.5 14.0046L33.5 13.9954C33.4823 12.06 31.9594 10.5177 30.0274 10.5L30.0183 11.5ZM30.0077 11.5H30.0228V10.5H30.0077V11.5ZM27.5001 13.9743C27.5127 12.614 28.6398 11.5 30.0077 11.5V10.5C28.0946 10.5 26.5179 12.0526 26.5001 13.9651L27.5001 13.9743ZM29.9819 16.5C28.6326 16.4874 27.4875 15.3192 27.5001 13.9744L26.5001 13.965C26.4824 15.8626 28.0714 17.4823 29.9726 17.5L29.9819 16.5ZM30.0077 16.5H29.9773V17.5H30.0077V16.5ZM31.7659 15.7672C31.2823 16.2496 30.6649 16.5 30.0077 16.5V17.5C30.9301 17.5 31.8013 17.1443 32.4721 16.4752L31.7659 15.7672Z" fill="#4600B9" mask="url(#path-1-outside-1_2697_23551)"></path>
</svg>
