<?xml version="1.0" encoding="UTF-8"?>
<svg xmlns="http://www.w3.org/2000/svg" width="60" height="60" viewBox="0 0 60 60" fill="none">
  <path d="M12.3122 59.6649C12.2967 59.6495 12.2967 59.6341 12.2811 59.6186C9.37463 58.6771 8.37988 57.3034 8.37988 54.2627C8.37988 38.0098 8.37988 21.7568 8.37988 5.51928C8.37988 3.11143 9.63885 1.29011 11.7682 0.703584C12.2345 0.580104 12.7163 0.518365 13.1982 0.518365C22.4151 0.50293 31.6165 0.518365 40.8334 0.50293C41.3618 0.50293 41.7504 0.672714 42.1234 1.04315C45.1076 4.02209 48.0919 6.98559 51.0916 9.94909C51.4647 10.3195 51.6201 10.7208 51.6201 11.2302C51.6201 25.7699 51.6201 40.2941 51.6201 54.8338C51.6201 57.2417 50.2368 58.9549 47.8898 59.5569C47.8121 59.5723 47.7655 59.6186 47.6878 59.6649C35.8907 59.6649 24.1093 59.6649 12.3122 59.6649ZM10.7113 30.0608C10.7113 38.2567 10.7113 46.4681 10.7113 54.664C10.7113 56.4236 11.6283 57.3497 13.3847 57.3497C24.4512 57.3497 35.5177 57.3497 46.5842 57.3497C48.3561 57.3497 49.2731 56.439 49.2731 54.6795C49.2731 40.433 49.2731 26.1866 49.2576 11.9402C49.2576 11.6469 49.1022 11.2611 48.8846 11.045C46.2578 8.4056 43.6155 5.78167 40.9422 3.15773C40.7401 2.95708 40.3826 2.80273 40.1028 2.80273C31.1813 2.81817 22.2441 2.81817 13.307 2.81817C13.0583 2.81817 12.7941 2.81817 12.5609 2.87991C11.3641 3.15773 10.7113 4.06839 10.7113 5.45754C10.7113 13.6689 10.7113 21.8648 10.7113 30.0608Z" fill="#4600B9"></path>
  <path d="M30.0619 25.9775C34.7696 25.9775 39.4772 25.9775 44.1848 25.9775C45.3966 25.9775 45.754 26.3344 45.754 27.529C45.754 35.814 45.754 44.0989 45.754 52.3839C45.754 53.594 45.3656 53.9664 44.1537 53.9664C34.7229 53.9664 25.2766 53.9664 15.8459 53.9664C14.6185 53.9664 14.2456 53.594 14.2456 52.3839C14.2456 44.1144 14.2456 35.8605 14.2456 27.5911C14.2456 26.3189 14.5874 25.9931 15.877 25.9931C20.6001 25.9775 25.3233 25.9775 30.0619 25.9775ZM16.5916 44.6419C17.5549 44.6419 18.4871 44.6419 19.4038 44.6419C24.9659 44.6419 30.528 44.6419 36.0746 44.6419C37.1777 44.6419 37.5506 45.0298 37.5506 46.1003C37.5506 47.5122 37.5506 48.924 37.5506 50.3359C37.5506 50.7548 37.5506 51.1737 37.5506 51.6081C39.5393 51.6081 41.4348 51.6081 43.3613 51.6081C43.3613 48.1017 43.3613 44.6264 43.3613 41.1511C34.4122 41.1511 25.5097 41.1511 16.5761 41.1511C16.5916 42.2992 16.5916 43.4163 16.5916 44.6419ZM16.6072 38.7618C25.5563 38.7618 34.4588 38.7618 43.4079 38.7618C43.4079 37.5982 43.4079 36.4656 43.4079 35.2865C43.1438 35.2865 42.9108 35.2865 42.6933 35.2865C36.4164 35.2865 30.1396 35.2865 23.8628 35.2865C22.8374 35.2865 22.449 34.8986 22.449 33.8901C22.449 32.2455 22.449 30.601 22.449 28.9564C22.449 28.7547 22.449 28.553 22.449 28.3358C20.4603 28.3358 18.5493 28.3358 16.6227 28.3358C16.6072 31.8266 16.6072 35.2865 16.6072 38.7618ZM38.778 28.3203C38.778 29.9028 38.778 31.4077 38.778 32.9282C40.3317 32.9282 41.8543 32.9282 43.3769 32.9282C43.3769 31.3767 43.3769 29.8563 43.3769 28.3203C41.8387 28.3203 40.3317 28.3203 38.778 28.3203ZM21.2216 51.6081C21.2216 50.0411 21.2216 48.5362 21.2216 47.0002C19.6679 47.0002 18.1608 47.0002 16.6227 47.0002C16.6227 48.5517 16.6227 50.0877 16.6227 51.6081C18.1764 51.6081 19.6679 51.6081 21.2216 51.6081ZM24.795 28.3203C24.795 29.9028 24.795 31.4077 24.795 32.9282C26.3487 32.9282 27.8713 32.9282 29.3783 32.9282C29.3783 31.3767 29.3783 29.8563 29.3783 28.3203C27.8402 28.3203 26.3331 28.3203 24.795 28.3203ZM36.3854 28.3513C34.8317 28.3513 33.2936 28.3513 31.7865 28.3513C31.7865 29.9183 31.7865 31.4233 31.7865 32.9127C33.3557 32.9127 34.8628 32.9127 36.3854 32.9127C36.3854 31.3612 36.3854 29.8718 36.3854 28.3513ZM28.2131 51.6081C28.2131 50.0411 28.2131 48.5362 28.2131 47.0002C26.6594 47.0002 25.1524 47.0002 23.6142 47.0002C23.6142 48.5517 23.6142 50.0721 23.6142 51.6081C25.1524 51.6081 26.6594 51.6081 28.2131 51.6081ZM30.6057 51.6081C32.1594 51.6081 33.6665 51.6081 35.2046 51.6081C35.2046 50.0566 35.2046 48.5362 35.2046 47.0002C33.6509 47.0002 32.1439 47.0002 30.6057 47.0002C30.6057 48.5517 30.6057 50.0721 30.6057 51.6081Z" fill="#4600B9"></path>
  <path d="M30.0056 8.54785C32.4202 8.59409 34.558 9.39564 36.342 11.0912C36.9726 11.6769 37.0341 12.3398 36.5573 12.8638C36.0652 13.3879 35.4193 13.3571 34.7887 12.7868C31.9435 10.2126 28.0524 10.228 25.2072 12.8022C24.592 13.3571 23.9614 13.3879 23.4693 12.8793C22.9618 12.3706 23.0233 11.6924 23.6385 11.1066C25.3917 9.42646 27.5295 8.60951 30.0056 8.54785Z" fill="#4600B9"></path>
  <path d="M29.9655 13.2402C31.2251 13.2559 32.2958 13.6645 33.209 14.4817C33.7759 15.0002 33.8388 15.6917 33.398 16.1945C32.9571 16.6974 32.2643 16.7288 31.666 16.2574C30.5166 15.346 29.4931 15.346 28.328 16.2574C27.7297 16.7288 27.0369 16.6974 26.596 16.1945C26.1551 15.6917 26.2339 15.0002 26.8007 14.4817C27.6982 13.6488 28.7688 13.2402 29.9655 13.2402Z" fill="#4600B9"></path>
  <path d="M31.173 19.0071C31.173 19.5959 30.6534 20.0964 30.0236 20.1111C29.3623 20.1258 28.8112 19.6106 28.827 18.9924C28.8427 18.3889 29.3623 17.9326 30.0079 17.9326C30.6692 17.9326 31.173 18.4036 31.173 19.0071Z" fill="#4600B9"></path>
</svg>
