<?xml version="1.0" encoding="UTF-8"?>
<svg xmlns="http://www.w3.org/2000/svg" width="60" height="60" viewBox="0 0 60 60" fill="none">
  <path d="M11 29.9837C11 22.1921 11 14.4005 11 6.60891C11 4.11495 11.9572 2.1589 14.1523 0.854866C15.1591 0.268051 16.2483 0.00724463 17.4036 0.00724463C25.7878 0.00724463 34.1719 -0.00905578 42.556 0.00724463C46.2695 0.00724463 48.9101 2.64791 48.9927 6.39701C49.0092 6.91862 48.9927 7.45653 48.9927 7.97815C48.9927 23.0886 48.9927 38.1991 48.9927 53.3096C48.9927 55.4612 48.316 57.3032 46.5665 58.6724C45.4113 59.5852 44.0744 59.9928 42.6055 59.9928C34.2049 59.9928 25.8043 60.0091 17.4036 59.9928C13.6242 59.9928 11 57.2543 11 53.4074C11 45.5995 11 37.7916 11 29.9837ZM46.4345 30.0326C46.4345 22.1595 46.4345 14.2864 46.4345 6.42961C46.4345 4.06605 44.8996 2.55011 42.49 2.53381C40.9056 2.53381 39.3212 2.55011 37.7368 2.51751C37.3737 2.51751 37.1922 2.63161 37.0271 2.95762C36.4165 4.19645 35.7398 5.40268 35.1291 6.65781C34.7825 7.35873 34.2544 7.68474 33.4622 7.66844C31.1516 7.65214 28.8575 7.65214 26.547 7.66844C25.7713 7.66844 25.2761 7.39133 24.946 6.69041C24.3519 5.43528 23.7082 4.21275 23.1306 2.95762C22.982 2.63161 22.784 2.51751 22.4209 2.53381C20.82 2.55011 19.2026 2.53381 17.6017 2.53381C15.0435 2.53381 13.5582 4.01715 13.5582 6.56001C13.5582 22.1921 13.5582 37.8405 13.5582 53.4726C13.5582 55.9992 15.06 57.4825 17.6182 57.4825C25.8703 57.4825 34.1389 57.4825 42.391 57.4825C42.7541 57.4825 43.1337 57.4825 43.4968 57.401C45.3452 56.9935 46.4345 55.5753 46.4345 53.5704C46.4345 45.7299 46.4345 37.8731 46.4345 30.0326ZM34.3864 2.58271C31.4652 2.58271 28.643 2.58271 25.7217 2.58271C26.1178 3.39773 26.4809 4.18015 26.8605 4.91367C26.9266 5.02777 27.1576 5.10927 27.3061 5.12557C29.0886 5.14187 30.8876 5.14187 32.67 5.12557C32.8186 5.12557 33.0331 5.07667 33.0991 4.97887C33.5282 4.21275 33.9408 3.41403 34.3864 2.58271Z" fill="#4600B9"></path>
  <path d="M30 46C27.2516 46 25 43.7449 25 41.0078C25 38.2862 27.2826 36 30 36C32.7174 36 35 38.2862 35 41.0078C35 43.7449 32.7329 46 30 46ZM29.9845 38.395C28.5404 38.395 27.3602 39.577 27.3758 41.0233C27.3913 42.4386 28.5714 43.6205 29.9689 43.6361C31.382 43.6516 32.5932 42.4386 32.6087 41.0078C32.6087 39.5614 31.4441 38.395 29.9845 38.395Z" fill="#4600B9"></path>
  <path d="M41 31.8477C40.7125 32.1848 40.5367 32.5372 40.2332 32.721C39.754 33.0274 39.1949 33.1347 38.6677 32.767C38.3802 32.5678 38.1406 32.3074 37.869 32.0775C33.3961 28.3393 26.7348 28.4465 22.4057 32.338C21.559 33.104 20.92 33.1806 20.345 32.5984C19.7858 32.0163 19.8977 31.4034 20.7443 30.6374C26.1597 25.7194 34.9616 25.796 40.2652 30.8212C40.5527 31.097 40.7125 31.4494 41 31.8477Z" fill="#4600B9"></path>
  <path d="M35.5328 37C35.2538 36.8382 34.9283 36.7249 34.7113 36.5146C32.0141 33.7799 27.7049 33.7799 25.0853 36.4822C24.4963 37.0971 23.7832 37.0647 23.3027 36.5146C22.8377 35.9806 22.9152 35.2848 23.4887 34.7023C26.9609 31.11 32.9907 31.0939 36.5094 34.6861C36.9279 35.1068 37.1139 35.5761 36.9279 36.1586C36.7729 36.5631 36.1684 36.9191 35.5328 37Z" fill="#4600B9"></path>
</svg>
