<?xml version="1.0" encoding="UTF-8"?>
<svg xmlns="http://www.w3.org/2000/svg" width="139" height="38" viewBox="0 0 139 38" fill="none">
  <g clip-path="url(#clip0_1328_9043)">
    <path d="M101.451 7.8277V9.1197C99.623 7.7517 97.3381 6.9917 94.977 6.9917C88.8077 6.9917 83.7808 12.2357 83.857 18.5437C83.9332 24.8517 88.8838 30.0957 95.0532 30.0197C97.4143 30.0197 99.623 29.2597 101.451 27.8917C100.994 30.6277 98.6329 33.2877 95.0532 33.2877H92.2351V37.9997C92.2351 37.9997 93.1491 37.9997 95.0532 37.9997C101.527 37.9997 106.097 32.6037 106.097 26.8277C106.097 21.2797 106.097 7.7517 106.097 7.7517L101.451 7.8277ZM94.977 25.3837C91.3973 25.3837 88.503 22.3437 88.4269 18.5437C88.4269 14.7437 91.3211 11.7037 94.9008 11.6277C98.4806 11.6277 101.375 14.6677 101.451 18.4677C101.451 22.2677 98.5567 25.3077 94.977 25.3837Z" fill="#4600B9"></path>
    <path d="M126.281 19.684C125.671 22.8 123.082 25.232 119.959 25.232C116.379 25.232 113.485 22.192 113.409 18.392C113.409 15.732 114.78 13.452 116.836 12.312L115.618 7.75195C111.581 9.49995 108.687 13.604 108.763 18.468C108.763 24.852 113.79 30.02 119.959 29.944C125.671 29.944 130.393 25.46 131.003 19.684H126.281Z" fill="#4600B9"></path>
    <path d="M121.711 11.7798L123.843 3.64777C121.33 2.96377 118.664 2.96377 115.922 3.64777L118.131 11.7798C118.664 11.6278 119.273 11.4758 119.883 11.4758C120.492 11.4758 121.101 11.6278 121.711 11.7798Z" fill="#00E0FF"></path>
    <path d="M134.659 14.3638L126.204 16.6438C126.357 17.1758 126.433 17.7078 126.433 18.3158L139 18.2398C139 9.42383 132.907 2.05183 124.757 -0.0761719L123.767 3.57183C128.946 5.01583 133.135 8.96783 134.659 14.3638Z" fill="#FF6EFF"></path>
    <path d="M126.204 16.7196L134.659 14.4396C133.212 8.96763 128.946 5.09163 123.843 3.72363L121.711 11.8556C123.919 12.4636 125.671 14.2876 126.204 16.7196Z" fill="#0094FF"></path>
    <path d="M30.3134 7.75195H25.5912V29.64H30.3134V7.75195Z" fill="#0094FF"></path>
    <path d="M75.7836 7.75184V9.04384C73.9556 7.67584 71.7468 6.83984 69.3096 6.83984C63.1403 6.83984 58.1134 12.0078 58.1134 18.3918C58.1134 24.7758 63.0641 30.0198 69.3096 30.0198C71.7468 30.0198 73.9556 29.1838 75.8597 27.8918V29.6398H80.5819V7.75184H75.7836ZM69.3096 25.3078C65.7299 25.3078 62.7595 22.1918 62.7595 18.3918C62.7595 14.5918 65.6537 11.4758 69.3096 11.4758C72.8893 11.4758 75.8597 14.5918 75.8597 18.3918C75.7836 22.2678 72.8893 25.3078 69.3096 25.3078Z" fill="#0094FF"></path>
    <path d="M17.7463 9.04384C15.9184 7.67584 13.6334 6.83984 11.1962 6.83984C5.02685 6.83984 0 12.0078 0 18.4678C0 24.9278 5.02685 30.0198 11.1962 30.0198C13.5573 30.0198 15.766 29.2598 17.594 27.9678C17.0608 30.7038 14.7759 33.3638 11.1962 33.3638H8.37808V37.9998C8.37808 37.9998 9.29205 37.9998 11.1962 37.9998C17.6701 37.9998 22.3923 32.6798 22.3923 26.8278C22.3923 21.2798 22.3923 7.75184 22.3923 7.75184H17.6701V9.04384H17.7463ZM11.1962 25.3078C7.61644 25.3078 4.64603 22.1918 4.64603 18.3918C4.64603 14.5918 7.54027 11.4758 11.1962 11.4758C14.7759 11.4758 17.7463 14.5918 17.7463 18.3918C17.7463 22.2678 14.7759 25.3078 11.1962 25.3078Z" fill="#0094FF"></path>
    <path d="M50.7255 9.04384C48.8975 7.67584 46.6126 6.83984 44.1753 6.83984C38.006 6.83984 32.9792 12.0078 32.9792 18.3918C32.9792 24.7758 38.006 30.0198 44.1753 30.0198C46.5364 30.0198 48.7452 29.2598 50.5732 27.9678C50.04 30.7038 47.7551 33.3638 44.1753 33.3638H41.3573V37.9998C41.3573 37.9998 42.2712 37.9998 44.1753 37.9998C50.6493 37.9998 55.3715 32.6798 55.3715 26.8278C55.3715 21.2798 55.3715 7.75184 55.3715 7.75184H50.6493V9.04384H50.7255ZM44.1753 25.3078C40.5956 25.3078 37.6252 22.1918 37.6252 18.3918C37.6252 14.5918 40.5195 11.4758 44.1753 11.4758C47.8312 11.4758 50.7255 14.5918 50.7255 18.3918C50.7255 22.2678 47.7551 25.3078 44.1753 25.3078Z" fill="#0094FF"></path>
  </g>
  <defs>
    <clipPath id="clip0_1328_9043">
      <rect width="139" height="38" fill="white"></rect>
    </clipPath>
  </defs>
</svg>
