<?xml version="1.0" encoding="UTF-8"?>
<svg xmlns="http://www.w3.org/2000/svg" width="200" height="200" viewBox="0 0 200 200" fill="none">
  <rect width="200" height="200" fill="white"></rect>
  <path d="M110.938 173L58.3964 172.775C56.8923 172.768 55.4043 172.482 54.0176 171.932C52.6308 171.383 51.3724 170.582 50.3141 169.574C49.2559 168.566 48.4186 167.372 47.85 166.059C47.2813 164.746 46.9926 163.341 47.0001 161.923L47.5593 37.7437C47.5647 36.3265 47.8664 34.9241 48.4472 33.6168C49.028 32.3096 49.8764 31.1231 50.9441 30.1253C52.0117 29.1274 53.2775 28.3378 54.6691 27.8016C56.0607 27.2653 57.5508 26.993 59.0542 27.0001L111.604 27.2327C113.108 27.2388 114.596 27.5244 115.984 28.0733C117.371 28.6221 118.63 29.4234 119.688 30.4314C120.747 31.4393 121.584 32.634 122.152 33.9473C122.72 35.2605 123.008 36.6665 123 38.0848L122.441 162.272C122.423 165.132 121.202 167.869 119.045 169.881C116.888 171.892 113.972 173.014 110.938 173Z" fill="#0C1941"></path>
  <path d="M111.291 30.782L101.196 30.7358C100.866 30.7418 100.541 30.8105 100.239 30.938C99.9368 31.0655 99.6637 31.2493 99.4354 31.4788C99.207 31.7082 99.0279 31.9789 98.9083 32.2753C98.7887 32.5717 98.7309 32.888 98.7383 33.2059V34.9758C98.7447 35.2938 98.6858 35.6098 98.5652 35.9058C98.4446 36.2018 98.2646 36.472 98.0355 36.7007C97.8064 36.9295 97.5328 37.1124 97.2302 37.239C96.9276 37.3656 96.6021 37.4333 96.2724 37.4383L76.6007 37.3536C76.2698 37.3457 75.9439 37.2748 75.6415 37.1451C75.3392 37.0153 75.0663 36.8293 74.8387 36.5977C74.6111 36.366 74.4331 36.0933 74.3151 35.7952C74.197 35.4971 74.1411 35.1794 74.1507 34.8604V33.0905C74.1603 32.7725 74.1046 32.4559 73.9869 32.1587C73.8693 31.8615 73.6919 31.5897 73.465 31.3587C73.2381 31.1278 72.9662 30.9423 72.6648 30.813C72.3634 30.6836 72.0385 30.613 71.7087 30.605H68.1574H59.3231C57.2149 30.6049 55.1922 31.4093 53.697 32.8425C52.2017 34.2756 51.3554 36.2211 51.3427 38.254L50.8 161.461C50.8 163.49 51.6309 165.437 53.112 166.878C54.5931 168.32 56.6046 169.138 58.7086 169.157L110.661 169.395C112.769 169.395 114.792 168.591 116.287 167.158C117.782 165.724 118.629 163.779 118.641 161.746L119.2 38.4771C119.2 36.4482 118.369 34.5013 116.888 33.0602C115.407 31.619 113.396 30.8002 111.291 30.782Z" fill="white"></path>
  <rect x="112" y="67" width="18" height="68" fill="white"></rect>
  <path d="M152.999 120.683L152.999 95.0426C152.999 93.2369 152.273 91.6118 151.002 90.5285L136.476 76.8058C135.205 75.7224 133.752 75 132.118 75L90.3551 75C86.9049 75 84 77.8891 84 81.3193L84 120.681C84 124.111 86.9055 127 90.3551 127L146.646 127C150.095 127.001 153 124.293 153 120.682L152.999 120.683ZM98.8879 118.516C95.4377 118.516 92.5328 115.627 92.5328 112.196L92.5328 89.8066C92.5328 86.3758 95.4383 83.4873 98.8879 83.4873L118.136 83.4867C121.586 83.4867 124.491 86.3758 124.491 89.806L124.491 112.196C124.491 115.627 121.586 118.515 118.136 118.515L98.8879 118.516Z" fill="white"></path>
  <path fill-rule="evenodd" clip-rule="evenodd" d="M136.476 76.8058L151.002 90.5285C152.273 91.6118 152.999 93.2369 152.999 95.0426L152.999 120.683C152.999 123.427 151.32 125.651 148.999 126.559C148.268 126.845 147.472 127 146.646 127L90.3551 127C86.9055 127 84 124.111 84 120.681L84 81.3193C84 77.8891 86.9049 75 90.3551 75L132.118 75C133.752 75 135.205 75.7224 136.476 76.8058ZM146.644 131L90.3551 131C84.7179 131 80 126.342 80 120.681L80 81.3193C80 75.659 84.7168 71 90.3551 71L132.118 71C135.004 71 137.344 72.2897 139.07 73.7613L139.148 73.8278L153.685 87.5602C155.855 89.4567 156.999 92.1921 156.999 95.0426L156.999 111.019L157 120.682C157 126.596 152.208 131.001 146.646 131C146.645 131 146.645 131 146.644 131ZM98.8879 83.4873C95.4383 83.4873 92.5328 86.3758 92.5328 89.8066L92.5328 112.196C92.5328 115.627 95.4377 118.516 98.8879 118.516L118.136 118.515C121.586 118.515 124.491 115.627 124.491 112.196L124.491 89.806C124.491 86.3758 121.586 83.4867 118.136 83.4867L98.8879 83.4873ZM118.136 87.4867L98.888 87.4873C97.626 87.4873 96.5328 88.6065 96.5328 89.8066L96.5328 112.196C96.5328 113.396 97.6257 114.516 98.8878 114.516C98.8878 114.516 98.8878 114.516 98.8878 114.516L118.136 114.515C119.398 114.515 120.491 113.396 120.491 112.196L120.491 89.806C120.491 88.606 119.398 87.4868 118.136 87.4867C118.136 87.4867 118.136 87.4867 118.136 87.4867Z" fill="#0C1941"></path>
  <path d="M98.8883 116.71C96.3464 116.71 94.3486 114.724 94.3486 112.196L94.3486 89.8074C94.3486 87.2798 96.3457 85.2932 98.8883 85.2932L118.136 85.2932C120.678 85.2932 122.676 87.2792 122.676 89.8074L122.676 92.1549L113.778 92.1549C113.234 92.1549 112.871 92.5158 112.871 93.0574C112.871 93.5991 113.234 93.96 113.778 93.96L122.676 93.96L122.676 100.099L113.778 100.099C113.234 100.099 112.871 100.46 112.871 101.002C112.871 101.544 113.234 101.904 113.778 101.904L122.676 101.904L122.676 108.044L113.778 108.044C113.234 108.044 112.871 108.405 112.871 108.946C112.871 109.488 113.234 109.849 113.778 109.849L122.676 109.849L122.676 112.196C122.676 114.724 120.679 116.71 118.136 116.71L98.8883 116.71Z" fill="#4600B9"></path>
</svg>
