<?xml version="1.0" encoding="UTF-8"?>
<svg xmlns="http://www.w3.org/2000/svg" width="200" height="200" viewBox="0 0 200 200" fill="none">
  <rect width="200" height="200" fill="white"></rect>
  <path d="M168.993 58.6135C166.857 56.3194 163.824 55.0005 160.674 55.0005H151.611C150.358 55.0005 149.346 56.006 149.346 57.2505C149.346 58.495 150.358 59.5004 151.611 59.5004H160.674C162.591 59.5004 164.365 60.2718 165.665 61.669C166.966 63.0682 167.6 64.8843 167.448 66.7786L162.084 134.28C161.807 137.769 158.832 140.5 155.306 140.5H55.6741C53.7574 140.5 51.9833 139.728 50.6806 138.331C49.3799 136.932 48.7457 135.116 48.8974 133.222L49.7359 122.678C49.833 121.438 48.9025 120.356 47.6564 120.257C46.4123 120.165 45.3179 121.085 45.2188 122.322L44.3803 132.866C44.1335 135.985 45.2168 139.09 47.3528 141.387C49.494 143.681 52.5255 145 55.6741 145H155.306C161.178 145 166.138 140.448 166.6 134.637L171.965 67.138C172.215 64.0191 171.13 60.9114 168.993 58.6143L168.993 58.6135Z" fill="#0C1941"></path>
  <path d="M50.8762 79.7427C50.9379 79.7478 50.9965 79.7498 51.0582 79.7498C52.2295 79.7498 53.2217 78.8568 53.3148 77.6776L54.2645 65.7186C54.5397 62.2313 57.5172 59.4999 61.0382 59.4999H142.547C143.801 59.4999 144.813 58.4945 144.813 57.25C144.813 56.0055 143.801 55 142.547 55H61.0382C55.1677 55 50.2066 59.5521 49.7464 65.363L48.7967 77.3189C48.6965 78.5614 49.6281 79.6442 50.8762 79.7426L50.8762 79.7427Z" fill="#0C1941"></path>
  <path d="M162.357 64.7439C161.52 63.8188 160.087 63.7445 159.157 64.5772L117.21 102.068C113.701 105.207 107.953 105.207 104.444 102.068L62.4995 64.5798C61.5679 63.7491 60.1387 63.8214 59.3004 64.7465C58.4619 65.6686 58.5387 67.0929 59.4683 67.9235L97.4665 101.884L59.5666 131.992C58.5876 132.771 58.4318 134.186 59.2136 135.155C59.6617 135.711 60.3192 135.999 60.9827 135.999C61.4793 135.999 61.98 135.839 62.3967 135.506L100.879 104.937L101.411 105.414C103.999 107.726 107.343 109 110.826 109C114.308 109 117.652 107.726 120.239 105.411L120.658 105.035L153.459 135.393C153.897 135.799 154.452 135.999 155.005 135.999C155.612 135.999 156.215 135.761 156.661 135.284C157.514 134.375 157.463 132.95 156.547 132.105L124.041 102.014L162.187 67.923C163.115 67.0903 163.19 65.666 162.354 64.7429L162.357 64.7439Z" fill="#0C1941"></path>
  <path d="M67.7818 104.5C67.7818 103.255 66.7663 102.25 65.5161 102.25H29.2657C28.0155 102.25 27 103.255 27 104.5C27 105.744 28.0155 106.75 29.2657 106.75H65.5161C66.7663 106.75 67.7818 105.744 67.7818 104.5Z" fill="#4600B9"></path>
  <path d="M38.3284 97.7502H60.9849C62.2351 97.7502 63.2506 96.7447 63.2506 95.5002C63.2506 94.2557 62.2351 93.2502 60.9849 93.2502H38.3284C37.0782 93.2502 36.0627 94.2557 36.0627 95.5002C36.0627 96.7447 37.0782 97.7502 38.3284 97.7502Z" fill="#4600B9"></path>
  <path d="M47.3909 88.7504H56.4535C57.7037 88.7504 58.7192 87.745 58.7192 86.5005C58.7192 85.256 57.7037 84.2505 56.4535 84.2505H47.3909C46.1407 84.2505 45.1252 85.256 45.1252 86.5005C45.1252 87.745 46.1407 88.7504 47.3909 88.7504Z" fill="#4600B9"></path>
  <path d="M58.7191 113.5C58.7191 112.255 57.7036 111.25 56.4534 111.25H33.7969C32.5468 111.25 31.5312 112.255 31.5312 113.5C31.5312 114.744 32.5468 115.75 33.7969 115.75H56.4534C57.7036 115.75 58.7191 114.744 58.7191 113.5Z" fill="#4600B9"></path>
</svg>
