<?xml version="1.0" encoding="UTF-8"?>
<svg xmlns="http://www.w3.org/2000/svg" width="200" height="200" viewBox="0 0 200 200" fill="none">
  <rect width="200" height="200" fill="white"></rect>
  <path d="M82.3119 79.1463L94.0181 84.0308L91.7822 84.2167C87.9649 84.524 85.1614 86.2134 82.7926 88.1314C83.2347 84.7516 82.9424 81.9925 82.3118 79.1464L82.3119 79.1463ZM74.6981 64.7659L115.335 75.7C118.824 76.6388 121.469 78.0326 122.54 80.7965L133.182 108.303C134.054 110.538 133.686 111.466 132.863 112.415C132.039 113.356 130.41 114.178 128.703 114.748C127.872 115.027 127.343 115.817 127.391 116.666C127.583 119.336 125.907 122.338 123.772 123.862C123.512 122.053 122.9 120.107 121.769 117.911L112.129 99.2629C110.513 96.1393 107.118 94.4488 103.4 94.6977L88.8375 95.6364C85.4624 95.8544 83.1963 97.8106 81.9532 99.3712L78.6567 103.523C75.2779 104.618 73.0155 104.105 72.1747 103.353C71.4016 102.662 71.5127 102.287 72.2049 101.724L85.5603 90.8008C88.0959 88.7267 88.7891 88.2633 92.1134 87.9941L110.061 86.5514C112.917 86.3215 114.143 87.9941 114.985 89.9312L124.283 111.474C125.214 113.977 129.014 112.364 127.823 109.973L118.533 88.4362C116.809 84.4535 113.821 82.4259 109.753 82.7547L102.266 83.3659L79.5973 73.8782C73.7338 71.4265 71.2274 68.098 71.51 66.4264C71.8603 64.3797 73.0441 64.3213 74.6989 64.7657L74.6981 64.7659ZM125.376 43.9522L134.335 86.6372C135.296 91.1951 135.296 93.8616 134.805 95.7104C134.533 96.7289 134.094 97.5676 133.493 98.4302L126.127 79.4534C125.033 76.6264 122.988 74.8369 120.643 73.6313L118.268 51.5727C117.768 46.9181 119.802 44.022 121.828 42.9845C123.682 42.0422 125.063 42.4984 125.377 43.9519L125.376 43.9522ZM119.933 39.68C116.396 41.3801 113.799 46.0047 114.442 51.9674L116.606 72.0997L75.6938 61.0991C73.017 60.3783 70.443 60.7345 68.9002 62.6704C66.9457 62.649 65.1349 63.2244 63.88 64.38C62.2082 65.9299 61.1959 68.284 61.3843 70.974C62.8508 90.9465 63.8606 109.185 61.6476 126.764C60.2428 137.833 60.8745 145.306 66.0361 153.352L66.0433 171.096C66.0433 173.635 69.9026 173.635 69.9026 171.096L69.8905 158.117C75.2129 163.12 82.1973 164.74 89.1843 162.387C91.6208 161.568 90.3633 157.97 87.9292 158.791C80.714 161.212 74.3106 158.938 69.5598 151.792C64.5683 144.258 64.0683 138.239 65.4636 127.251C67.7261 109.203 66.5761 90.7208 65.2305 70.6958C65.0722 68.3167 66.0543 67.1779 67.6766 66.743C68.0197 70.5385 71.3439 74.5011 77.9093 77.2886C79.3299 82.515 79.9726 85.3038 78.0301 92.0145L69.3714 99.0922C68.207 100.041 67.5667 101.523 67.7189 102.918C67.8687 104.309 68.6889 105.527 69.8606 106.387C71.2051 107.373 72.9988 107.949 75.1443 107.949L71.1823 112.929C70.6532 113.601 70.6339 114.539 71.1437 115.231C72.3541 116.87 73.9993 117.996 75.8234 118.431C77.6571 118.867 79.5813 118.629 81.4862 117.97C84.9809 116.763 88.4212 114.253 92.0764 110.664C93.9101 112.127 96.4457 112.798 98.7517 112.927C98.6925 113.866 98.6248 114.043 98.6309 115.241C98.6538 116.268 98.7734 117.247 99.2542 118.372C96.116 119.902 94.653 122.247 93.9223 124.744C88.7812 126.456 84.8928 128.255 82.118 130.803C79.1609 133.523 77.4964 137.118 76.5034 142.03C76.0033 144.533 79.8036 145.275 80.3037 142.772C81.206 138.276 82.4562 135.658 84.7344 133.573C86.6889 131.785 89.6544 130.322 93.9223 128.779C94.5347 130.686 95.6968 132.309 97.301 133.601C99.3038 135.482 101.998 132.248 99.7447 130.677C98.1804 129.402 97.5498 128.353 97.3626 126.465C98.4341 123.876 99.2555 122.176 102.571 121.139C103.947 120.749 104.437 119.081 103.486 118.034C102.662 117.125 102.505 116.354 102.493 115.197C102.474 114.03 102.745 112.588 102.703 110.909C102.673 109.791 101.67 108.939 100.551 109.068C97.5028 109.446 95.7888 108.793 92.9438 106.725C92.1707 106.165 91.0872 106.264 90.418 106.943C86.6672 110.778 83.0411 113.427 80.2143 114.375C78.1801 115.066 76.9262 114.935 75.4041 113.789L84.9772 101.713C85.8083 100.665 87.0706 99.5456 89.0855 99.4206L103.648 98.4818C106.173 98.3126 107.744 99.1633 108.675 100.972L118.347 119.632C119.96 122.755 120.272 124.832 120.038 126.638C119.821 128.437 118.955 130.127 117.747 132.284L107.404 150.589C107.243 150.877 107.164 151.193 107.164 151.517L107.171 171.089C107.171 173.628 111.043 173.628 111.043 171.089L111.024 152.01L121.117 134.14C122.249 132.132 123.23 130.059 123.661 128.202C127.92 126.688 130.617 122.35 130.889 117.784C132.603 117.131 134.437 116.439 135.79 114.877C137.402 113.02 138.022 110.112 136.79 106.951L135.099 102.573C136.601 100.832 137.902 99.0744 138.545 96.6739C139.266 93.9636 139.136 90.6947 138.113 85.8495L129.146 43.1828C128.093 38.2006 123.871 37.7969 119.933 39.6825L119.933 39.68Z" fill="#0C1941"></path>
  <path d="M88.3796 30.6606C87.0723 30.6704 86.1851 32.0932 86.7006 33.363L92.4176 48.0414C92.7789 49.0572 93.8675 49.5529 94.8238 49.1374C95.779 48.7254 96.2277 47.5662 95.8077 46.5675L90.0976 31.8928C89.8225 31.1468 89.1424 30.6607 88.3795 30.6607L88.3796 30.6606Z" fill="#4600B9"></path>
  <path d="M106.018 28.0003C104.91 28.0189 104.015 28.8604 104.035 29.8927L104.059 44.6733C103.997 45.7358 104.904 46.6239 106.062 46.6239C107.208 46.6239 108.128 45.7358 108.066 44.6733V29.8948C108.086 28.8392 107.159 27.9908 106.018 28.0001L106.018 28.0003Z" fill="#4600B9"></path>
  <path d="M73.7201 41.3029C71.966 41.3029 71.0956 43.3912 72.3529 44.5857L83.2185 55.3618C83.979 56.1186 85.2034 56.1282 85.9724 55.3834C86.7427 54.6361 86.7427 53.4246 85.9846 52.6774L75.1069 41.9001C74.7431 41.5234 74.245 41.3147 73.7201 41.3027L73.7201 41.3029Z" fill="#4600B9"></path>
</svg>
