<?xml version="1.0" encoding="UTF-8"?>
<svg xmlns="http://www.w3.org/2000/svg" width="24" height="24" viewBox="0 0 24 24" fill="none">
  <path d="M13.8507 15.4945C13.4038 17.7802 11.5043 19.5641 9.21367 19.5641C6.58787 19.5641 4.46489 17.3342 4.40902 14.5468C4.40902 12.5957 5.41464 10.9232 6.92308 10.087L6.02919 6.74219C3.06819 8.02438 0.945209 11.0347 1.00108 14.6026C1.00108 19.2854 4.68836 23.0762 9.21367 23.0204C13.4038 23.0204 16.8676 19.7313 17.3145 15.4945H13.8507Z" fill="#4600B9"></path>
  <path d="M10.4984 9.69674L12.0627 3.73176C10.2191 3.23004 8.26369 3.23004 6.25244 3.73176L7.87262 9.69674C8.26369 9.58524 8.71063 9.47375 9.15757 9.47375C9.60452 9.47375 10.0515 9.58524 10.4984 9.69674Z" fill="#00E0FF"></path>
  <path d="M19.996 11.592L13.7946 13.2644C13.9063 13.6547 13.9622 14.0449 13.9622 14.4909L23.1804 14.4351C23.1804 7.96842 18.711 2.56093 12.7331 1L12.0068 3.67587C15.8059 4.73508 18.8786 7.63394 19.996 11.592Z" fill="#FF6EFF"></path>
  <path d="M13.7943 13.3199L19.9956 11.6475C18.9341 7.63368 15.8055 4.79056 12.0624 3.78711L10.498 9.75208C12.1182 10.1981 13.4032 11.536 13.7943 13.3199Z" fill="#0094FF"></path>
</svg>
